<svg xmlns="http://www.w3.org/2000/svg" viewBox="0 0 199.36 232.571">
  <defs>
    <style>
      .cls-1 {
        opacity: 0.55;
      }

      .cls-2 {
        fill: none;
        stroke: #fff;
        stroke-width: 2px;
      }

      .cls-2, .cls-3, .cls-4 {
        stroke-miterlimit: 10;
      }

      .cls-3, .cls-4 {
        fill: #c01818;
        stroke: #c01818;
      }

      .cls-4 {
        stroke-width: 16px;
      }
    </style>
  </defs>
  <title>Asset 1</title>
  <g id="Layer_2" data-name="Layer 2">
    <g id="MVT1_D19-15" data-name="MVT1 D19-15">
      <g>
        <g id="Hacker" class="cls-1">
          <path class="cls-2" d="M94.554,163.386,104.96,149.62a11.125,11.125,0,0,0,2.011-9q-2.5-11.881-5.008-23.762a17.542,17.542,0,0,0-11.492-12.975q-3.3-1.131-6.6-2.281c2.343-2.373,4.759-4.739,7.283-7.123a2.531,2.531,0,0,0-1.237-4.322Q83.275,88.813,76.6,87.97a29.453,29.453,0,0,0,.267-3.934V82.759c8.553-3.187,14.313-7.985,14.313-13.042,0-5.314-5.454-7.994-15.053-9.264A88.211,88.211,0,0,0,71.449,47a8.261,8.261,0,0,0-5.119-4.733c-3.933-1.2-8.4.76-11.449,2.619a1.726,1.726,0,0,1-1.645.014c-3.071-1.768-7.561-3.61-11.5-2.339a8.57,8.57,0,0,0-5.164,4.864,87.392,87.392,0,0,0-4.488,13.032c-9.6,1.27-15.048,3.95-15.048,9.263,0,5.057,5.76,9.855,14.313,13.042v1.277a29.479,29.479,0,0,0,.267,3.935q-6.674.841-13.321,2.185a2.532,2.532,0,0,0-1.236,4.324c2.522,2.382,4.939,4.746,7.283,7.12q-3.3,1.148-6.6,2.281A17.542,17.542,0,0,0,6.247,116.856q-2.5,11.882-5.008,23.762a11.125,11.125,0,0,0,2.011,9l10.407,13.766.434,9.37a6.706,6.706,0,0,0,1.091,3.375,6.853,6.853,0,0,0,4.869,11.679H88.16a6.852,6.852,0,0,0,4.868-11.679,6.706,6.706,0,0,0,1.091-3.375ZM22.1,69.717c0-1.487,3-2.917,8.034-3.824.225-.041.456-.08.689-.119a24.344,24.344,0,0,0-.559,3.7,2.533,2.533,0,0,0,5.065.013c.046-1.558,2.339-12.2,5.857-19.974a3.434,3.434,0,0,1,2.1-2.131c1.676-.54,4.383.155,7.427,1.908a6.764,6.764,0,0,0,6.806-.079c3.016-1.837,5.691-2.6,7.333-2.1a3.2,3.2,0,0,1,2,2,87.014,87.014,0,0,1,6.04,20.362,2.533,2.533,0,0,0,5.065,0,24.083,24.083,0,0,0-.56-3.7c.234.039.465.078.69.119,5.03.907,8.034,2.337,8.034,3.824,0,4.166-13.2,11.86-32.01,11.86S22.1,73.883,22.1,69.717ZM71.8,84.369A26.6,26.6,0,0,1,60.131,105.6l-2.7,1.888a6.082,6.082,0,0,1-6.651,0l-2.7-1.889A26.6,26.6,0,0,1,36.414,84.369a69.982,69.982,0,0,0,35.382,0ZM88.16,182.745H20.051a1.792,1.792,0,1,1,0-3.584H88.16a1.792,1.792,0,1,1,0,3.584Zm.9-10.224a1.65,1.65,0,0,1-1.65,1.576H20.8a1.65,1.65,0,0,1-1.65-1.576l-1.771-38.2a1.654,1.654,0,0,1,1.65-1.729H89.181a1.653,1.653,0,0,1,1.65,1.729Zm.121-45H19.029a6.715,6.715,0,0,0-6.709,7.028l.922,19.887L7.29,146.566a6.057,6.057,0,0,1-1.095-4.9l4.265-20.239L11.2,117.9a12.539,12.539,0,0,1,8.176-9.228q4.494-1.537,8.84-3.062,2.316,2.445,4.559,4.929a2.532,2.532,0,0,0,3.762-3.39c-3.961-4.4-8.061-8.658-12.447-12.934q4.322-.758,8.619-1.3a32.449,32.449,0,0,0,12.465,16.828l2.7,1.888a10.979,10.979,0,0,0,12.455,0l2.7-1.887A32.448,32.448,0,0,0,75.5,92.92q4.3.54,8.62,1.294c-4.388,4.279-8.487,8.541-12.445,12.934a2.532,2.532,0,0,0,3.763,3.39q2.241-2.488,4.557-4.927,4.35,1.524,8.838,3.061a12.535,12.535,0,0,1,8.176,9.228l5.008,23.762a6.057,6.057,0,0,1-1.095,4.9l-5.952,7.873.922-19.887a6.715,6.715,0,0,0-6.709-7.028Z"/>
          <path class="cls-2" d="M65.93,87.463c-.98,10.088-8.789,3.626-8.789,3.626Z"/>
          <path class="cls-2" d="M42.327,87.463c.98,10.088,8.789,3.626,8.789,3.626Z"/>
        </g>
        <g>
          <path class="cls-3" d="M86.282,71.042c.169,12.278,6.611,24.026,17.314,31.507l4.009,2.8a9.028,9.028,0,0,0,9.871,0l4.007-2.8c10.7-7.482,17.146-19.23,17.315-31.508a102.86,102.86,0,0,1-26.258,3.373A102.854,102.854,0,0,1,86.282,71.042Zm8.777,4.592L108.1,81.016S96.513,90.607,95.059,75.634Zm35.032,0c-1.455,14.973-13.046,5.382-13.046,5.382Z"/>
          <path class="cls-3" d="M160.05,49.294c0-2.207-4.458-4.329-11.925-5.676-.334-.06-.677-.118-1.023-.176a35.783,35.783,0,0,1,.83,5.488,3.758,3.758,0,1,1-7.516,0c-.056-1.845-3.343-17.974-8.966-30.222-.988-2.154-2.164-2.727-2.963-2.971-2.438-.745-6.408.391-10.885,3.118a10.04,10.04,0,0,1-10.1.116c-4.517-2.6-8.535-3.632-11.022-2.831-.848.273-2.095.9-3.121,3.163-5.222,11.537-8.625,27.334-8.693,29.646a3.759,3.759,0,0,1-7.517-.019,36.027,36.027,0,0,1,.83-5.488c-.346.058-.689.116-1.023.176-7.467,1.347-11.925,3.469-11.925,5.676,0,6.184,19.593,17.6,47.511,17.6S160.05,55.478,160.05,49.294Z"/>
          <path class="cls-3" d="M164.6,142.61H60.479a2.453,2.453,0,0,0-2.449,2.566l2.628,56.7a2.45,2.45,0,0,0,2.45,2.339h98.864a2.448,2.448,0,0,0,2.449-2.339l2.629-56.7a2.453,2.453,0,0,0-2.449-2.566Z"/>
          <path class="cls-3" d="M163.084,211.735H62a2.66,2.66,0,1,0,0,5.319H163.084a2.66,2.66,0,1,0,0-5.319Z"/>
          <path class="cls-3" d="M176.217,120.81a18.61,18.61,0,0,0-12.136-13.7q-6.669-2.283-13.118-4.544-3.438,3.627-6.764,7.313a3.759,3.759,0,1,1-5.585-5.032c5.874-6.52,11.959-12.846,18.471-19.2q-6.414-1.122-12.793-1.92a48.158,48.158,0,0,1-18.5,24.977l-4.007,2.8a16.3,16.3,0,0,1-18.485,0l-4.009-2.8a48.146,48.146,0,0,1-18.5-24.976q-6.381.8-12.793,1.922c6.51,6.347,12.6,12.672,18.475,19.2a3.759,3.759,0,1,1-5.585,5.032q-3.329-3.694-6.767-7.314Q67.661,104.833,61,107.113a18.608,18.608,0,0,0-12.136,13.7l-1.1,5.23L41.43,156.078a8.987,8.987,0,0,0,1.626,7.278l8.833,11.685-1.368-29.517a9.969,9.969,0,0,1,9.958-10.431H164.6a9.966,9.966,0,0,1,9.957,10.432l-1.368,29.516,8.834-11.685a8.991,8.991,0,0,0,1.626-7.278Z"/>
          <path class="cls-4" d="M188.02,167.889,172.574,188.32l-.644,13.907a9.952,9.952,0,0,1-1.619,5.01,10.17,10.17,0,0,1-7.227,17.334H62a10.17,10.17,0,0,1-7.226-17.334,9.933,9.933,0,0,1-1.619-5.01l-.645-13.907L37.059,167.889a16.511,16.511,0,0,1-2.984-13.361q3.715-17.636,7.433-35.269A26.034,26.034,0,0,1,58.564,100q4.9-1.678,9.793-3.386c-3.48-3.522-7.066-7.032-10.81-10.567a3.758,3.758,0,0,1,1.835-6.417q9.862-1.993,19.771-3.244a43.7,43.7,0,0,1-.4-5.84V68.652C66.063,63.921,57.512,56.8,57.512,49.294c0-7.885,8.094-11.863,22.336-13.748A129.708,129.708,0,0,1,86.51,16.2a12.721,12.721,0,0,1,7.664-7.218c5.854-1.887,12.517.846,17.077,3.472a2.565,2.565,0,0,0,2.44-.021c4.529-2.759,11.156-5.673,16.993-3.888a12.26,12.26,0,0,1,7.6,7.024,130.768,130.768,0,0,1,6.943,19.973c14.247,1.885,22.343,5.863,22.343,13.749,0,7.506-8.55,14.627-21.244,19.358v1.895a43.675,43.675,0,0,1-.4,5.839q9.9,1.251,19.771,3.243a3.758,3.758,0,0,1,1.836,6.416c-3.746,3.538-7.332,7.049-10.81,10.571q4.892,1.7,9.792,3.385a26.035,26.035,0,0,1,17.057,19.258q3.717,17.634,7.433,35.269A16.507,16.507,0,0,1,188.02,167.889Z"/>
        </g>
        <g id="Hacker-2" data-name="Hacker">
          <path class="cls-2" d="M174.583,189.76l15.755-20.84a16.841,16.841,0,0,0,3.044-13.628q-3.791-17.987-7.582-35.973a26.553,26.553,0,0,0-17.4-19.643q-5-1.712-9.988-3.453c3.548-3.593,7.206-7.174,11.026-10.783a3.833,3.833,0,0,0-1.873-6.544q-10.059-2.033-20.165-3.307a44.588,44.588,0,0,0,.4-5.955V67.7c12.948-4.826,21.668-12.09,21.668-19.745,0-8.044-8.257-12.1-22.789-14.025A133.309,133.309,0,0,0,139.6,13.56,12.5,12.5,0,0,0,131.856,6.4c-5.954-1.821-12.713,1.151-17.332,3.965a2.618,2.618,0,0,1-2.49.021c-4.65-2.678-11.446-5.465-17.418-3.541A12.974,12.974,0,0,0,86.8,14.2,132.369,132.369,0,0,0,80,33.932c-14.527,1.924-22.781,5.981-22.781,14.024,0,7.655,8.721,14.919,21.668,19.745v1.933A44.6,44.6,0,0,0,79.3,75.59Q69.192,76.865,59.13,78.9a3.833,3.833,0,0,0-1.873,6.545c3.82,3.606,7.478,7.186,11.026,10.778q-4.989,1.739-9.988,3.454a26.555,26.555,0,0,0-17.4,19.643q-3.791,17.986-7.582,35.973a16.842,16.842,0,0,0,3.045,13.628l15.754,20.839.657,14.185a10.144,10.144,0,0,0,1.652,5.11A10.374,10.374,0,0,0,61.8,226.735H164.9a10.374,10.374,0,0,0,7.37-17.681,10.144,10.144,0,0,0,1.652-5.11ZM64.89,47.956c0-2.251,4.547-4.416,12.163-5.79.34-.061.69-.121,1.043-.179a36.677,36.677,0,0,0-.846,5.6,3.834,3.834,0,0,0,7.667.02c.069-2.359,3.54-18.472,8.867-30.238,1.046-2.31,2.317-2.948,3.182-3.227,2.537-.817,6.635.235,11.243,2.888a10.241,10.241,0,0,0,10.3-.119c4.567-2.781,8.616-3.94,11.1-3.18.815.249,2.014.834,3.023,3.031,5.735,12.492,9.087,28.943,9.144,30.825a3.834,3.834,0,0,0,7.667,0,36.5,36.5,0,0,0-.847-5.6c.353.058.7.118,1.044.179,7.615,1.374,12.162,3.539,12.162,5.79,0,6.307-19.983,17.955-48.459,17.955S64.89,54.263,64.89,47.956Zm75.242,22.182c-.172,12.524-6.743,24.506-17.661,32.137l-4.087,2.858a9.207,9.207,0,0,1-10.068,0l-4.09-2.86C93.31,94.644,86.739,82.662,86.567,70.138a104.929,104.929,0,0,0,26.782,3.44A104.937,104.937,0,0,0,140.132,70.138ZM164.9,219.068H61.8a2.713,2.713,0,1,1,0-5.426H164.9a2.713,2.713,0,0,1,0,5.426Zm1.364-15.479a2.5,2.5,0,0,1-2.5,2.386H62.93a2.5,2.5,0,0,1-2.5-2.386L57.75,145.753a2.5,2.5,0,0,1,2.5-2.617h106.2a2.5,2.5,0,0,1,2.5,2.617Zm.182-68.12H60.249a10.168,10.168,0,0,0-10.158,10.639l1.4,30.107L42.477,164.3a9.166,9.166,0,0,1-1.658-7.423l6.457-30.64L48.4,120.9a18.983,18.983,0,0,1,12.378-13.971q6.8-2.328,13.382-4.634,3.507,3.7,6.9,7.46a3.833,3.833,0,1,0,5.7-5.132c-6-6.655-12.2-13.106-18.843-19.58q6.541-1.146,13.048-1.96a49.108,49.108,0,0,0,18.871,25.475l4.089,2.859a16.621,16.621,0,0,0,18.854,0l4.087-2.858a49.12,49.12,0,0,0,18.872-25.477q6.508.817,13.048,1.959c-6.642,6.478-12.848,12.93-18.84,19.581a3.834,3.834,0,0,0,5.7,5.132q3.393-3.768,6.9-7.459,6.587,2.308,13.38,4.634A18.979,18.979,0,0,1,178.3,120.9l7.582,35.973a9.166,9.166,0,0,1-1.659,7.423l-9.01,11.919,1.395-30.106a10.165,10.165,0,0,0-10.156-10.64Z"/>
          <path class="cls-2" d="M131.251,74.821c-1.484,15.273-13.306,5.49-13.306,5.49Z"/>
          <path class="cls-2" d="M95.519,74.821c1.484,15.273,13.306,5.49,13.306,5.49Z"/>
        </g>
      </g>
    </g>
  </g>
</svg>
