<svg xmlns="http://www.w3.org/2000/svg" xmlns:xlink="http://www.w3.org/1999/xlink" viewBox="0 0 210.36 57.77">
  <defs>
    <style>
      .cls-1, .cls-2, .cls-3 {
        fill: #fff;
      }

      .cls-1 {
        clip-rule: evenodd;
      }

      .cls-3 {
        fill-rule: evenodd;
      }

      .cls-4 {
        clip-path: url(#clip-path);
      }

      .cls-5 {
        clip-path: url(#clip-path-2);
      }

      .cls-6 {
        clip-path: url(#clip-path-3);
      }

      .cls-7 {
        clip-path: url(#clip-path-5);
      }

      .cls-8 {
        clip-path: url(#clip-path-7);
      }

      .cls-9 {
        clip-path: url(#clip-path-9);
      }

      .cls-10 {
        clip-path: url(#clip-path-11);
      }

      .cls-11 {
        clip-path: url(#clip-path-13);
      }

      .cls-12 {
        clip-path: url(#clip-path-15);
      }

      .cls-13 {
        clip-path: url(#clip-path-17);
      }

      .cls-14 {
        clip-path: url(#clip-path-19);
      }
    </style>
    <clipPath id="clip-path">
      <path class="cls-1" d="M105.05,34.49l-5-3-.37.58a5.21,5.21,0,0,1-4.59,2.71A5.66,5.66,0,0,1,89.38,29a5.66,5.66,0,0,1,5.76-5.82,5.19,5.19,0,0,1,4.59,2.72l.37.58,5-3-.43-.63a10.88,10.88,0,0,0-9.51-5.19,11.34,11.34,0,1,0,9.52,17.47Z"/>
    </clipPath>
    <clipPath id="clip-path-2">
      <rect class="cls-2" x="10.12" y="9.62" width="190.33" height="37.61"/>
    </clipPath>
    <clipPath id="clip-path-3">
      <path class="cls-1" d="M104.8,40.32h6.86l2-5.13H124l2,5.13h6.89L120.62,10.27h-6.11l1.62,4Zm14.09-18.19,2.77,7.05h-5.59Z"/>
    </clipPath>
    <clipPath id="clip-path-5">
      <path class="cls-1" d="M135.74,40.34h6V26.85h3.92V21.19h-3.93V18.51a2.22,2.22,0,0,1,2.17-2.36,4,4,0,0,1,1.71.33l.67.29,2.5-5.52-.72-.3a10.93,10.93,0,0,0-3.77-.63,8.42,8.42,0,0,0-6.5,2.61,8.68,8.68,0,0,0-2.07,5.84v2.41H133.1v5.66h2.66Z"/>
    </clipPath>
    <clipPath id="clip-path-7">
      <polygon class="cls-1" points="55.07 10.09 55.07 40.29 61.61 40.3 61.62 23.03 67.96 27.81 74.3 23.03 74.3 40.3 80.83 40.31 80.84 10.09 67.96 19.95 55.07 10.09"/>
    </clipPath>
    <clipPath id="clip-path-9">
      <path class="cls-1" d="M159.24,17.74a11.31,11.31,0,1,0,0,22.61h0a12.43,12.43,0,0,0,9.25-4.53l-4.91-2.71a6.07,6.07,0,0,1-4.47,2,5.44,5.44,0,0,1-5.24-3.85h16.37v-1.5C170.25,21.47,163.81,17.74,159.24,17.74ZM154,26.25A4.8,4.8,0,0,1,158.67,23a5.1,5.1,0,0,1,4.85,3.27Z"/>
    </clipPath>
    <clipPath id="clip-path-11">
      <path class="cls-1" d="M183.84,17.76a11.31,11.31,0,1,0,0,22.61h0a12.46,12.46,0,0,0,9.25-4.53l-4.91-2.71a6.13,6.13,0,0,1-4.47,2,5.43,5.43,0,0,1-5.24-3.85h16.37V29.77C194.84,21.49,188.41,17.76,183.84,17.76Zm-5.25,8.51A4.8,4.8,0,0,1,183.26,23a5.1,5.1,0,0,1,4.86,3.26Z"/>
    </clipPath>
    <clipPath id="clip-path-13">
      <polygon class="cls-1" points="194.07 16.75 196.62 16.75 196.62 17.23 195.62 17.23 195.62 19.93 195.06 19.93 195.06 17.23 194.07 17.23 194.07 16.75"/>
    </clipPath>
    <clipPath id="clip-path-15">
      <polygon class="cls-1" points="196.97 16.75 197.75 16.75 198.62 19.24 198.63 19.24 199.47 16.75 200.24 16.75 200.24 19.93 199.71 19.93 199.71 17.47 199.7 17.47 198.83 19.93 198.38 19.93 197.5 17.47 197.5 17.47 197.5 19.93 196.97 19.93 196.97 16.75"/>
    </clipPath>
    <clipPath id="clip-path-17">
      <polygon class="cls-1" points="16.75 35.85 16.75 20.55 26.29 25.02 26.29 17.63 10.12 10.07 10.12 40.13 26.29 47.7 26.29 40.32 16.75 35.85"/>
    </clipPath>
    <clipPath id="clip-path-19">
      <polygon class="cls-1" points="35.82 35.85 35.82 20.55 26.29 25.02 26.29 17.63 42.45 10.07 42.45 40.13 26.29 47.7 26.29 40.32 35.82 35.85"/>
    </clipPath>
  </defs>
  <title>Asset 8</title>
  <g id="Layer_2" data-name="Layer 2">
    <g id="NGM1">
      <g id="McAfee_Logo" data-name="McAfee Logo">
        <g>
          <path class="cls-3" d="M105.05,34.49l-5-3-.37.58a5.21,5.21,0,0,1-4.59,2.71A5.66,5.66,0,0,1,89.38,29a5.66,5.66,0,0,1,5.76-5.82,5.19,5.19,0,0,1,4.59,2.72l.37.58,5-3-.43-.63a10.88,10.88,0,0,0-9.51-5.19,11.34,11.34,0,1,0,9.52,17.47Z"/>
          <g class="cls-4">
            <g>
              <rect class="cls-2" x="10.12" y="9.62" width="190.33" height="37.61"/>
              <g class="cls-5">
                <rect class="cls-2" x="73.32" y="7.57" width="41.89" height="42.81"/>
              </g>
            </g>
          </g>
        </g>
        <g>
          <path class="cls-3" d="M104.8,40.32h6.86l2-5.13H124l2,5.13h6.89L120.62,10.27h-6.11l1.62,4Zm14.09-18.19,2.77,7.05h-5.59Z"/>
          <g class="cls-6">
            <g>
              <rect class="cls-2" x="10.12" y="9.62" width="190.33" height="37.61"/>
              <g class="cls-5">
                <rect class="cls-2" x="94.68" y="0.2" width="48.35" height="50.2"/>
              </g>
            </g>
          </g>
        </g>
        <g>
          <path class="cls-3" d="M135.74,40.34h6V26.85h3.92V21.19h-3.93V18.51a2.22,2.22,0,0,1,2.17-2.36,4,4,0,0,1,1.71.33l.67.29,2.5-5.52-.72-.3a10.93,10.93,0,0,0-3.77-.63,8.42,8.42,0,0,0-6.5,2.61,8.68,8.68,0,0,0-2.07,5.84v2.41H133.1v5.66h2.66Z"/>
          <g class="cls-7">
            <g>
              <rect class="cls-2" x="10.12" y="9.62" width="190.33" height="37.61"/>
              <g class="cls-5">
                <rect class="cls-2" x="122.97" y="0.25" width="35.97" height="50.16"/>
              </g>
            </g>
          </g>
        </g>
        <g>
          <polygon class="cls-3" points="55.07 10.09 55.07 40.29 61.61 40.3 61.62 23.03 67.96 27.81 74.3 23.03 74.3 40.3 80.83 40.31 80.84 10.09 67.96 19.95 55.07 10.09"/>
          <g class="cls-8">
            <g>
              <rect class="cls-2" x="10.12" y="9.62" width="190.33" height="37.61"/>
              <g class="cls-5">
                <rect class="cls-2" x="44.95" y="0.03" width="46.02" height="50.35"/>
              </g>
            </g>
          </g>
        </g>
        <g>
          <path class="cls-3" d="M159.24,17.74a11.31,11.31,0,1,0,0,22.61h0a12.43,12.43,0,0,0,9.25-4.53l-4.91-2.71a6.07,6.07,0,0,1-4.47,2,5.44,5.44,0,0,1-5.24-3.85h16.37v-1.5C170.25,21.47,163.81,17.74,159.24,17.74ZM154,26.25A4.8,4.8,0,0,1,158.67,23a5.1,5.1,0,0,1,4.85,3.27Z"/>
          <g class="cls-9">
            <g>
              <rect class="cls-2" x="10.12" y="9.62" width="190.33" height="37.61"/>
              <g class="cls-5">
                <rect class="cls-2" x="137.45" y="7.67" width="42.91" height="42.74"/>
              </g>
            </g>
          </g>
        </g>
        <g>
          <path class="cls-3" d="M183.84,17.76a11.31,11.31,0,1,0,0,22.61h0a12.46,12.46,0,0,0,9.25-4.53l-4.91-2.71a6.13,6.13,0,0,1-4.47,2,5.43,5.43,0,0,1-5.24-3.85h16.37V29.77C194.84,21.49,188.41,17.76,183.84,17.76Zm-5.25,8.51A4.8,4.8,0,0,1,183.26,23a5.1,5.1,0,0,1,4.86,3.26Z"/>
          <g class="cls-10">
            <g>
              <rect class="cls-2" x="10.12" y="9.62" width="190.33" height="37.61"/>
              <g class="cls-5">
                <rect class="cls-2" x="162.05" y="7.69" width="42.91" height="42.74"/>
              </g>
            </g>
          </g>
        </g>
        <g>
          <polygon class="cls-3" points="194.07 16.75 196.62 16.75 196.62 17.23 195.62 17.23 195.62 19.93 195.06 19.93 195.06 17.23 194.07 17.23 194.07 16.75"/>
          <g class="cls-11">
            <g>
              <rect class="cls-2" x="10.12" y="9.62" width="190.33" height="37.61"/>
              <g class="cls-5">
                <rect class="cls-2" x="183.94" y="6.68" width="22.79" height="23.32"/>
              </g>
            </g>
          </g>
        </g>
        <g>
          <polygon class="cls-3" points="196.97 16.75 197.75 16.75 198.62 19.24 198.63 19.24 199.47 16.75 200.24 16.75 200.24 19.93 199.71 19.93 199.71 17.47 199.7 17.47 198.83 19.93 198.38 19.93 197.5 17.47 197.5 17.47 197.5 19.93 196.97 19.93 196.97 16.75"/>
          <g class="cls-12">
            <g>
              <rect class="cls-2" x="10.12" y="9.62" width="190.33" height="37.61"/>
              <g class="cls-5">
                <rect class="cls-2" x="186.85" y="6.68" width="23.51" height="23.32"/>
              </g>
            </g>
          </g>
        </g>
        <g>
          <polygon class="cls-3" points="16.75 35.85 16.75 20.55 26.29 25.02 26.29 17.63 10.12 10.07 10.12 40.13 26.29 47.7 26.29 40.32 16.75 35.85"/>
          <g class="cls-13">
            <g>
              <rect class="cls-2" x="10.12" y="9.62" width="190.33" height="37.61"/>
              <g class="cls-5">
                <rect class="cls-2" width="36.41" height="57.77"/>
              </g>
            </g>
          </g>
        </g>
        <g>
          <polygon class="cls-3" points="35.82 35.85 35.82 20.55 26.29 25.02 26.29 17.63 42.45 10.07 42.45 40.13 26.29 47.7 26.29 40.32 35.82 35.85"/>
          <g class="cls-14">
            <g>
              <rect class="cls-2" x="10.12" y="9.62" width="190.33" height="37.61"/>
              <g class="cls-5">
                <rect class="cls-2" x="16.16" width="36.41" height="57.77"/>
              </g>
            </g>
          </g>
        </g>
      </g>
    </g>
  </g>
</svg>
